<svg width="62" height="56" viewBox="0 0 62 56" fill="none" xmlns="http://www.w3.org/2000/svg">
<path d="M33.6976 23.4734C32.5607 23.4736 31.4705 23.9253 30.6667 24.7292C29.8628 25.533 29.4111 26.6232 29.4109 27.7601C29.4109 27.8969 29.4179 28.0323 29.4312 28.166L36.8007 24.8071C36.4013 24.3855 35.9201 24.0497 35.3866 23.8204C34.853 23.5911 34.2783 23.473 33.6976 23.4734Z" fill="#FF1B1B"/>
<path d="M20.0472 35.0505C18.8325 32.7902 18.1984 30.2635 18.2019 27.6975C18.2019 19.1022 25.1693 12.1309 33.7645 12.1309C36.4883 12.1297 39.1647 12.8438 41.5259 14.2018C43.8871 15.5597 45.8503 17.5139 47.219 19.8688V0L0 21.4975V44.1824C4.5229 42.1689 11.4121 39.0728 20.0472 35.0818V35.0505ZM16.8611 31.428H13.9723V25.8741C13.9723 25.1755 13.6328 24.6475 12.7638 24.6475C11.9714 24.6475 11.405 25.1568 11.1211 25.5346V31.4256H8.2135V25.8717C8.2135 25.1732 7.89278 24.6452 7.00572 24.6452C6.23131 24.6452 5.68374 25.1544 5.3818 25.5322V31.4233H2.47422V22.3118H5.3818V23.4257C5.77839 22.8969 6.94627 22.0849 8.38403 22.0849C9.68645 22.0849 10.5931 22.6325 10.9709 23.7088C11.4989 22.9157 12.6918 22.0849 14.1233 22.0849C15.8043 22.0849 16.8611 22.9532 16.8611 24.8228V31.428Z" fill="#FF1B1B"/>
<path d="M47.2478 20.0488L37.548 25.8749C37.3549 25.484 37.1036 25.1248 36.8025 24.8095L29.4307 28.1668C29.5229 29.1312 29.9389 30.0359 30.6111 30.7335C31.2833 31.4312 32.172 31.8805 33.1323 32.0083C34.0926 32.1362 35.0679 31.935 35.8992 31.4375C36.7304 30.9401 37.3687 30.1757 37.7099 29.269L48.1293 33.6879C46.9958 36.4039 45.1155 38.7429 42.7065 40.4337C40.2976 42.1244 37.4587 43.0976 34.5191 43.2404C31.5795 43.3832 28.6596 42.6898 26.0981 41.2405C23.5366 39.7912 21.4385 37.6454 20.047 35.0521V55.129L61.7231 36.137V13.4521L47.2478 20.0488ZM59.3286 31.4311H56.4406V25.8772C56.4406 25.1787 56.1003 24.6507 55.2321 24.6507C54.4389 24.6507 53.8725 25.1599 53.5894 25.5377V31.4288H50.6818V25.8749C50.6818 25.1763 50.3603 24.6483 49.4732 24.6483C48.6988 24.6483 48.1512 25.1576 47.8493 25.5354V31.4264H44.9417V22.3118H47.8485V23.4257C48.2451 22.8969 49.413 22.0849 50.8507 22.0849C52.1539 22.0849 53.0598 22.6325 53.4376 23.7089C53.9664 22.9157 55.1585 22.0849 56.5908 22.0849C58.2711 22.0849 59.3286 22.9532 59.3286 24.8228V31.4311Z" fill="#FF1B1B"/>
<path d="M33.6976 32.049C36.065 32.049 37.9842 30.1298 37.9842 27.7624C37.9842 25.3949 36.065 23.4757 33.6976 23.4757C31.3301 23.4757 29.4109 25.3949 29.4109 27.7624C29.4109 30.1298 31.3301 32.049 33.6976 32.049Z" fill="#FF1B1B"/>
</svg>
